<?xml version="1.0" encoding="UTF-8"?>
<!--
  AIKOU Business Card — BACK
  Size : 96 × 56 mm  (standard credit-card format)
  Bleed: none — add 1–2 mm bleed in Illustrator before sending to print
  Color: RGB — switch Document Color Mode to CMYK in Illustrator (File › Document Color Mode › CMYK)
  Layers (3): Background · Glow · Logo
-->
<svg
  xmlns="http://www.w3.org/2000/svg"
  xmlns:xlink="http://www.w3.org/1999/xlink"
  xmlns:i="http://ns.adobe.com/AdobeIllustrator/10.0/"
  version="1.1"
  width="96mm" height="56mm"
  viewBox="0 0 96 56"
  xml:space="preserve">

  <defs>
    <!-- 4 mm grid tile -->
    <pattern id="grid" x="0" y="0" width="4" height="4" patternUnits="userSpaceOnUse">
      <line x1="0" y1="0" x2="4" y2="0" stroke="#ffffff" stroke-opacity="0.013" stroke-width="0.08"/>
      <line x1="0" y1="0" x2="0" y2="4" stroke="#ffffff" stroke-opacity="0.013" stroke-width="0.08"/>
    </pattern>
    <!-- Rounded-rect clip -->
    <clipPath id="cardClip">
      <rect width="96" height="56" rx="3" ry="3"/>
    </clipPath>
    <!-- Cyan glow — bottom-left corner (mirror of front) -->
    <radialGradient id="glowGrad" cx="20" cy="46" r="30" gradientUnits="userSpaceOnUse">
      <stop offset="0%"   stop-color="#00c8ff" stop-opacity="0.055"/>
      <stop offset="65%"  stop-color="#00c8ff" stop-opacity="0"/>
      <stop offset="100%" stop-color="#00c8ff" stop-opacity="0"/>
    </radialGradient>
  </defs>

  <!-- ═══════════════════════════════════════════
       LAYER 1 · Background
  ═══════════════════════════════════════════ -->
  <g id="Background" i:layer="yes">
    <rect width="96" height="56" rx="3" ry="3" fill="#090909"/>
    <rect width="96" height="56" rx="3" ry="3"
          fill="none" stroke="#1e1e1e" stroke-width="0.3"/>
    <rect width="96" height="56" rx="3" ry="3"
          fill="url(#grid)" clip-path="url(#cardClip)"/>
  </g>

  <!-- ═══════════════════════════════════════════
       LAYER 2 · Glow
  ═══════════════════════════════════════════ -->
  <g id="Glow" i:layer="yes">
    <rect width="96" height="56" rx="3" ry="3"
          fill="url(#glowGrad)" clip-path="url(#cardClip)"/>
  </g>

  <!-- ═══════════════════════════════════════════
       LAYER 3 · Logo
       AIKOU logo-03-bright (emblem + AIKOU + TECHNOLOGIES)
       Scaled to 46 mm width, centered on card
       Source viewBox: 0 0 440 140  →  scale = 46/440 ≈ 0.10455
       Width  = 440 × 0.10455 = 46 mm
       Height = 140 × 0.10455 = 14.64 mm
       Translate: (96/2 − 46/2 , 56/2 − 14.64/2) = (25, 20.68)
  ═══════════════════════════════════════════ -->
  <g id="Logo" i:layer="yes">
    <g transform="translate(25,20.68) scale(0.10455)">

      <!-- Emblem: cyan rounded square -->
      <path fill="#00C8FF"
        d="M63,22h54c11.6,0,21,9.4,21,21v54c0,11.6-9.4,21-21,21H63
           c-11.6,0-21-9.4-21-21V43C42,31.4,51.4,22,63,22z"/>
      <!-- Left chevron set — dark teal -->
      <polygon fill="#005A7A" points="63,46 72,46 90,67 81,67"/>
      <polygon fill="#005A7A" points="63,94 72,94 90,73 81,73"/>
      <rect    fill="#005A7A" x="81" y="67" width="9" height="6"/>
      <!-- Right chevron set — black -->
      <polygon fill="#000000" points="90,46 99,46 117,67 108,67"/>
      <polygon fill="#000000" points="90,94 99,94 117,73 108,73"/>
      <rect    fill="#000000" x="108" y="67" width="9" height="6"/>

      <!-- A -->
      <path fill="#FFFFFF"
        d="M162.3,81.4l12.2-51.1h18.1l12.1,51.1h-10l-2.5-11h-17.4l-2.5,11H162.3z
           M176.9,61.3h13.2l-5.9-26.1h-1.3L176.9,61.3z"/>
      <!-- I -->
      <path fill="#FFFFFF"
        d="M216.6,81.4v-9.2h12.3V39.5h-12.3v-9.2h34.1v9.2h-12.3v32.7h12.3v9.2
           C250.7,81.4,216.6,81.4,216.6,81.4z"/>
      <!-- K -->
      <path fill="#FFFFFF"
        d="M265.1,81.4V30.3h9.6v21h2.1l13.5-21h10.9v0.4l-15.7,24.5v1.3
           L302.1,81v0.4h-11.3l-13.9-21h-2.2v21H265.1z"/>
      <!-- O — cyan -->
      <path fill="#00C8FF"
        d="M329,82.5c-5.9,0-10.5-1.8-13.8-5.4s-5-8.8-5-15.6V50.1
           c0-6.6,1.7-11.7,5-15.4c3.4-3.7,8-5.5,13.8-5.5s10.5,1.8,13.8,5.5
           c3.4,3.7,5,8.8,5,15.4v11.4c0,6.8-1.7,12-5,15.6S334.9,82.5,329,82.5z
           M329,73.7c3.5,0,5.9-1.1,7.2-3.2c1.3-2.1,2-4.9,2-8.3V49.5
           c0-2.1-0.3-4.1-1-5.9c-0.6-1.8-1.6-3.1-3-4.2c-1.3-1-3.1-1.5-5.3-1.5
           c-2.2,0-4,0.5-5.3,1.5c-1.4,1-2.4,2.4-3,4.2s-0.9,3.7-0.9,5.9v12.6
           c0,3.4,0.7,6.2,2,8.3C323.1,72.6,325.5,73.7,329,73.7z"/>
      <!-- U -->
      <path fill="#FFFFFF"
        d="M378.7,82.5c-6,0-10.6-1.7-13.7-5s-4.7-7.9-4.7-13.7V30.3h9.6v33.4
           c0,3,0.7,5.3,2.2,7c1.4,1.7,3.6,2.6,6.6,2.6s5.2-0.9,6.6-2.6s2.1-4.1,2.1-7V30.3
           h9.6v33.4c0,5.8-1.5,10.4-4.6,13.7C389.4,80.8,384.8,82.5,378.7,82.5z"/>

      <!-- TECHNOLOGIES — each letter is a separate outlined path (#cccccc) -->
      <!-- T -->
      <path fill="#cccccc"
        d="M164.4,110.5v-8.7h-2.9v-1.1h6.9v1.1h-2.9v8.7H164.4z"/>
      <!-- E -->
      <path fill="#cccccc"
        d="M182.9,110.5v-9.8h5.9v1.1H184v3.2h4.7v1.1H184v3.3h4.8v1.1
           C188.8,110.5,182.9,110.5,182.9,110.5z"/>
      <!-- C -->
      <path fill="#cccccc"
        d="M206.7,110.7c-1.1,0-1.9-0.3-2.5-1s-0.9-1.7-0.9-3v-2.2
           c0-1.3,0.3-2.2,0.9-2.9c0.6-0.7,1.5-1.1,2.5-1.1c0.7,0,1.4,0.2,1.9,0.5
           s0.9,0.7,1.2,1.3c0.3,0.5,0.4,1.1,0.4,1.8v0.2H209v-0.2
           c0-0.4-0.1-0.8-0.2-1.2c-0.2-0.4-0.4-0.7-0.7-0.9c-0.3-0.2-0.8-0.4-1.3-0.4
           c-0.8,0-1.3,0.3-1.7,0.8s-0.6,1.3-0.6,2.2v2c0,1,0.2,1.7,0.6,2.2
           s0.9,0.8,1.7,0.8c0.5,0,1-0.1,1.3-0.3s0.6-0.5,0.7-0.9
           c0.2-0.4,0.2-0.8,0.2-1.2V107h1.2v0.2c0,0.7-0.1,1.3-0.4,1.8
           c-0.3,0.5-0.6,1-1.2,1.3S207.5,110.7,206.7,110.7z"/>
      <!-- H -->
      <path fill="#cccccc"
        d="M224.3,110.5v-9.8h1.2v4.3h4.2v-4.3h1.2v9.8h-1.2v-4.4h-4.2v4.4H224.3z"/>
      <!-- N -->
      <path fill="#cccccc"
        d="M245.1,110.5v-9.8h2.4l2.8,9.3h0.2v-9.3h1.2v9.8h-2.4l-2.8-9.3h-0.2v9.3H245.1z"/>
      <!-- O -->
      <path fill="#cccccc"
        d="M269.2,110.7c-1.1,0-1.9-0.3-2.5-1s-0.9-1.7-0.9-3v-2.2
           c0-1.3,0.3-2.2,0.9-2.9c0.6-0.7,1.5-1.1,2.5-1.1c1.1,0,1.9,0.4,2.5,1.1
           s0.9,1.7,0.9,2.9v2.2c0,1.3-0.3,2.3-0.9,3C271.1,110.3,270.3,110.7,269.2,110.7z
           M269.2,109.6c0.8,0,1.3-0.3,1.7-0.8s0.6-1.3,0.6-2.2v-2
           c0-0.9-0.2-1.6-0.6-2.2s-0.9-0.8-1.7-0.8c-0.8,0-1.3,0.3-1.7,0.8
           s-0.6,1.3-0.6,2.2v2c0,1,0.2,1.7,0.6,2.2C267.9,109.3,268.5,109.6,269.2,109.6z"/>
      <!-- L -->
      <path fill="#cccccc"
        d="M287,110.5v-9.8h1.2v8.7h5.1v1.1C293.3,110.5,287,110.5,287,110.5z"/>
      <!-- O -->
      <path fill="#cccccc"
        d="M310.9,110.7c-1.1,0-1.9-0.3-2.5-1s-0.9-1.7-0.9-3v-2.2
           c0-1.3,0.3-2.2,0.9-2.9c0.6-0.7,1.5-1.1,2.5-1.1c1.1,0,1.9,0.4,2.5,1.1
           s0.9,1.7,0.9,2.9v2.2c0,1.3-0.3,2.3-0.9,3C312.8,110.3,312,110.7,310.9,110.7z
           M310.9,109.6c0.8,0,1.3-0.3,1.7-0.8s0.6-1.3,0.6-2.2v-2
           c0-0.9-0.2-1.6-0.6-2.2s-0.9-0.8-1.7-0.8c-0.8,0-1.3,0.3-1.7,0.8
           s-0.6,1.3-0.6,2.2v2c0,1,0.2,1.7,0.6,2.2C309.6,109.3,310.1,109.6,310.9,109.6z"/>
      <!-- G -->
      <path fill="#cccccc"
        d="M331.7,110.7c-1,0-1.9-0.3-2.5-1s-0.9-1.7-0.9-3v-2.2
           c0-1.3,0.3-2.2,0.9-2.9c0.6-0.7,1.5-1.1,2.5-1.1c0.7,0,1.4,0.2,1.9,0.5
           s0.9,0.7,1.2,1.3c0.3,0.5,0.4,1.1,0.4,1.8v0.2H334v-0.2
           c0-0.4-0.1-0.8-0.2-1.2c-0.2-0.4-0.4-0.7-0.7-0.9c-0.3-0.2-0.8-0.4-1.3-0.4
           c-0.8,0-1.3,0.3-1.7,0.8s-0.6,1.3-0.6,2.2v2c0,1,0.2,1.7,0.6,2.2
           s1,0.8,1.7,0.8s1.2-0.2,1.6-0.7s0.6-1.1,0.6-1.9v-0.2h-3.2v-1.1h4.4v4.7h-1.1
           v-1.2h-0.2c-0.1,0.4-0.4,0.7-0.8,1C332.7,110.6,332.2,110.7,331.7,110.7z"/>
      <!-- I -->
      <path fill="#cccccc"
        d="M349.5,110.5v-1.1h2.5v-7.6h-2.5v-1.1h6.2v1.1h-2.5v7.6h2.5v1.1H349.5z"/>
      <!-- E -->
      <path fill="#cccccc"
        d="M370.5,110.5v-9.8h5.9v1.1h-4.7v3.2h4.7v1.1h-4.7v3.3h4.8v1.1
           C376.5,110.5,370.5,110.5,370.5,110.5z"/>
      <!-- S -->
      <path fill="#cccccc"
        d="M394.5,110.7c-0.8,0-1.5-0.2-2.1-0.5s-1-0.7-1.3-1.3s-0.4-1.2-0.4-1.8v-0.4h1.2v0.3
           c0,0.8,0.2,1.5,0.7,1.9s1.1,0.7,2,0.7c0.7,0,1.3-0.2,1.6-0.5c0.4-0.3,0.6-0.8,0.6-1.3v-0.1
           c0-0.5-0.2-0.9-0.6-1.2s-1-0.5-1.8-0.6c-1-0.1-1.8-0.4-2.3-0.8s-0.9-1-0.9-1.9V103
           c0-0.5,0.1-1,0.4-1.4s0.7-0.7,1.1-0.9c0.5-0.2,1-0.3,1.7-0.3s1.4,0.1,1.9,0.4
           s0.9,0.6,1.2,1.1c0.3,0.4,0.4,0.9,0.4,1.5v0.6h-1.2v-0.5c0-0.4-0.1-0.8-0.3-1.1
           c-0.2-0.3-0.5-0.5-0.9-0.6s-0.7-0.2-1.1-0.2s-0.7,0.1-1,0.2s-0.6,0.3-0.8,0.5
           c-0.2,0.2-0.3,0.5-0.3,0.8v0.1c0,0.5,0.2,0.9,0.7,1.2s1.1,0.4,2,0.6
           c1,0.1,1.8,0.4,2.3,0.9s0.7,1,0.7,1.8v0.2c0,0.8-0.3,1.5-0.9,2.1
           S395.6,110.7,394.5,110.7z"/>

    </g>
  </g>

</svg>
