<?xml version="1.0" encoding="utf-8"?>
<!-- Generator: Adobe Illustrator 23.0.3, SVG Export Plug-In . SVG Version: 6.00 Build 0)  -->
<svg version="1.1" id="Réteg_1" xmlns="http://www.w3.org/2000/svg" xmlns:xlink="http://www.w3.org/1999/xlink" x="0px" y="0px"
	 viewBox="0 0 440 140" style="enable-background:new 0 0 440 140;" xml:space="preserve">
<style type="text/css">
	.st0{display:none;}
	.st1{display:inline;fill:#181818;}
	.st2{display:inline;fill:#FFFFFF;}
	.st3{font-family:'SpaceMono-Bold';}
	.st4{font-size:72px;}
	.st5{letter-spacing:2;}
	.st6{display:inline;fill:#00C8FF;}
	.st7{display:inline;fill:#777777;}
	.st8{font-family:'SpaceMono-Regular';}
	.st9{font-size:14px;}
	.st10{letter-spacing:14;}
	.st11{fill:#FFFFFF;}
	.st12{fill:#00C8FF;}
	.st13{fill:#777777;}
</style>
<g class="st0">
	<rect y="0" class="st1" width="440" height="140"/>
	<text transform="matrix(1 0 0 1 20 95)" class="st2 st3 st4 st5">AIK</text>
	<text transform="matrix(1 0 0 1 218 95)" class="st6 st3 st4">O</text>
	<text transform="matrix(1 0 0 1 270 95)" class="st2 st3 st4 st5">U</text>
	<text transform="matrix(1 0 0 1 20 124)" class="st7 st8 st9 st10">TECHNOLOGIES</text>
</g>
<g id="Réteg_7" class="st0">
	<rect y="0" class="st1" width="440" height="140"/>
</g>
<g class="st0">
	
		<text transform="matrix(1 0 0 1 62.1931 241.8745)" class="st3" style="display:inline;fill:#AD3434; font-size:71.8155px; letter-spacing:3;">AIKOU</text>
</g>
<g id="Réteg_2_másolat">
	<g>
		<path class="st11" d="M102.6,82.2l12.2-51.1h18.1L145,82.2h-10l-2.5-11h-17.4l-2.5,11H102.6z M117.2,62.1h13.2L124.5,36h-1.3
			L117.2,62.1z"/>
		<path class="st11" d="M156.9,82.2V73h12.3V40.3h-12.3v-9.2H191v9.2h-12.3V73H191v9.2H156.9z"/>
		<path class="st11" d="M205.4,82.2V31.1h9.6v21h2.1l13.5-21h10.9v0.4L225.8,56v1.3l16.6,24.5v0.4h-11.3l-13.9-21H215v21
			C215,82.2,205.4,82.2,205.4,82.2z"/>
		<path class="st12" d="M269.3,83.3c-5.9,0-10.5-1.8-13.8-5.4s-5-8.8-5-15.6V50.9c0-6.6,1.7-11.7,5-15.4c3.4-3.7,8-5.5,13.8-5.5
			s10.5,1.8,13.8,5.5c3.4,3.7,5,8.8,5,15.4v11.4c0,6.8-1.7,12-5,15.6S275.2,83.3,269.3,83.3z M269.3,74.5c3.5,0,5.9-1.1,7.2-3.2
			c1.3-2.1,2-4.9,2-8.3V50.3c0-2.1-0.3-4.1-1-5.9c-0.6-1.8-1.6-3.1-3-4.2c-1.3-1-3.1-1.5-5.3-1.5c-2.2,0-4,0.5-5.3,1.5
			c-1.4,1-2.4,2.4-3,4.2s-0.9,3.7-0.9,5.9v12.6c0,3.4,0.7,6.2,2,8.3C263.4,73.4,265.8,74.5,269.3,74.5z"/>
		<path class="st11" d="M319,83.3c-6,0-10.6-1.7-13.7-5s-4.7-7.9-4.7-13.7V31.1h9.6v33.4c0,3,0.7,5.3,2.2,7c1.4,1.7,3.6,2.6,6.6,2.6
			s5.2-0.9,6.6-2.6s2.1-4.1,2.1-7V31.1h9.6v33.4c0,5.8-1.5,10.4-4.6,13.7C329.7,81.6,325.1,83.3,319,83.3z"/>
	</g>
</g>
<g id="Réteg_3" class="st0">
	
		<text transform="matrix(1 0 0 1 62.3705 271.436)" class="st8" style="display:inline;fill:#CC5A5A; font-size:14.6158px; letter-spacing:9;">TECHNOLOGIES</text>
</g>
<g id="Réteg_3_másolat">
	<g>
		<g>
			<path class="st13" d="M104.7,111.3v-8.7h-2.9v-1.1h6.9v1.1h-2.9v8.7H104.7z"/>
			<path class="st13" d="M123.2,111.3v-9.8h5.9v1.1h-4.8v3.2h4.7v1.1h-4.7v3.3h4.8v1.1C129.1,111.3,123.2,111.3,123.2,111.3z"/>
			<path class="st13" d="M147,111.5c-1.1,0-1.9-0.3-2.5-1s-0.9-1.7-0.9-3v-2.2c0-1.3,0.3-2.2,0.9-2.9c0.6-0.7,1.5-1.1,2.5-1.1
				c0.7,0,1.4,0.2,1.9,0.5s0.9,0.7,1.2,1.3c0.3,0.5,0.4,1.1,0.4,1.8v0.2h-1.2v-0.2c0-0.4-0.1-0.8-0.2-1.2c-0.2-0.4-0.4-0.7-0.7-0.9
				c-0.3-0.2-0.8-0.4-1.3-0.4c-0.8,0-1.3,0.3-1.7,0.8s-0.6,1.3-0.6,2.2v2c0,1,0.2,1.7,0.6,2.2s0.9,0.8,1.7,0.8c0.5,0,1-0.1,1.3-0.3
				s0.6-0.5,0.7-0.9c0.2-0.4,0.2-0.8,0.2-1.2v-0.2h1.2v0.2c0,0.7-0.1,1.3-0.4,1.8c-0.3,0.5-0.6,1-1.2,1.3S147.8,111.5,147,111.5z"/>
			<path class="st13" d="M164.6,111.3v-9.8h1.2v4.3h4.2v-4.3h1.2v9.8H170v-4.4h-4.2v4.4H164.6z"/>
			<path class="st13" d="M185.4,111.3v-9.8h2.4l2.8,9.3h0.2v-9.3h1.2v9.8h-2.4l-2.8-9.3h-0.2v9.3H185.4z"/>
			<path class="st13" d="M209.5,111.5c-1.1,0-1.9-0.3-2.5-1s-0.9-1.7-0.9-3v-2.2c0-1.3,0.3-2.2,0.9-2.9c0.6-0.7,1.5-1.1,2.5-1.1
				c1.1,0,1.9,0.4,2.5,1.1s0.9,1.7,0.9,2.9v2.2c0,1.3-0.3,2.3-0.9,3C211.4,111.1,210.6,111.5,209.5,111.5z M209.5,110.4
				c0.8,0,1.3-0.3,1.7-0.8s0.6-1.3,0.6-2.2v-2c0-0.9-0.2-1.6-0.6-2.2s-0.9-0.8-1.7-0.8s-1.3,0.3-1.7,0.8s-0.6,1.3-0.6,2.2v2
				c0,1,0.2,1.7,0.6,2.2S208.8,110.4,209.5,110.4z"/>
			<path class="st13" d="M227.3,111.3v-9.8h1.2v8.7h5.1v1.1C233.6,111.3,227.3,111.3,227.3,111.3z"/>
			<path class="st13" d="M251.2,111.5c-1.1,0-1.9-0.3-2.5-1s-0.9-1.7-0.9-3v-2.2c0-1.3,0.3-2.2,0.9-2.9c0.6-0.7,1.5-1.1,2.5-1.1
				c1.1,0,1.9,0.4,2.5,1.1s0.9,1.7,0.9,2.9v2.2c0,1.3-0.3,2.3-0.9,3C253.1,111.1,252.3,111.5,251.2,111.5z M251.2,110.4
				c0.8,0,1.3-0.3,1.7-0.8s0.6-1.3,0.6-2.2v-2c0-0.9-0.2-1.6-0.6-2.2s-0.9-0.8-1.7-0.8s-1.3,0.3-1.7,0.8s-0.6,1.3-0.6,2.2v2
				c0,1,0.2,1.7,0.6,2.2S250.4,110.4,251.2,110.4z"/>
			<path class="st13" d="M272,111.5c-1,0-1.9-0.3-2.5-1s-0.9-1.7-0.9-3v-2.2c0-1.3,0.3-2.2,0.9-2.9c0.6-0.7,1.5-1.1,2.5-1.1
				c0.7,0,1.4,0.2,1.9,0.5s0.9,0.7,1.2,1.3c0.3,0.5,0.4,1.1,0.4,1.8v0.2h-1.2v-0.2c0-0.4-0.1-0.8-0.2-1.2c-0.2-0.4-0.4-0.7-0.7-0.9
				c-0.3-0.2-0.8-0.4-1.3-0.4c-0.8,0-1.3,0.3-1.7,0.8s-0.6,1.3-0.6,2.2v2c0,1,0.2,1.7,0.6,2.2s1,0.8,1.7,0.8s1.2-0.2,1.6-0.7
				s0.6-1.1,0.6-1.9v-0.2h-3.2v-1.1h4.4v4.7h-1.1V110h-0.2c-0.1,0.4-0.4,0.7-0.8,1C273,111.4,272.5,111.5,272,111.5z"/>
			<path class="st13" d="M289.8,111.3v-1.1h2.5v-7.6h-2.5v-1.1h6.2v1.1h-2.5v7.6h2.5v1.1H289.8z"/>
			<path class="st13" d="M310.8,111.3v-9.8h5.9v1.1H312v3.2h4.7v1.1H312v3.3h4.8v1.1C316.8,111.3,310.8,111.3,310.8,111.3z"/>
			<path class="st13" d="M334.8,111.5c-0.8,0-1.5-0.2-2.1-0.5s-1-0.7-1.3-1.3s-0.4-1.2-0.4-1.8v-0.4h1.2v0.3c0,0.8,0.2,1.5,0.7,1.9
				s1.1,0.7,2,0.7c0.7,0,1.3-0.2,1.6-0.5c0.4-0.3,0.6-0.8,0.6-1.3v-0.1c0-0.5-0.2-0.9-0.6-1.2s-1-0.5-1.8-0.6
				c-1-0.1-1.8-0.4-2.3-0.8s-0.9-1-0.9-1.9v-0.2c0-0.5,0.1-1,0.4-1.4s0.7-0.7,1.1-0.9c0.5-0.2,1-0.3,1.7-0.3s1.4,0.1,1.9,0.4
				s0.9,0.6,1.2,1.1c0.3,0.4,0.4,0.9,0.4,1.5v0.6H337v-0.5c0-0.4-0.1-0.8-0.3-1.1c-0.2-0.3-0.5-0.5-0.9-0.6s-0.7-0.2-1.1-0.2
				s-0.7,0.1-1,0.2s-0.6,0.3-0.8,0.5c-0.2,0.2-0.3,0.5-0.3,0.8v0.1c0,0.5,0.2,0.9,0.7,1.2s1.1,0.4,2,0.6c1,0.1,1.8,0.4,2.3,0.9
				s0.7,1,0.7,1.8v0.2c0,0.8-0.3,1.5-0.9,2.1S335.9,111.5,334.8,111.5z"/>
		</g>
	</g>
</g>
<g id="Réteg_4" class="st0">
</g>
</svg>
