<?xml version="1.0" encoding="utf-8"?>
<!-- Generator: Adobe Illustrator 23.0.3, SVG Export Plug-In . SVG Version: 6.00 Build 0)  -->
<svg version="1.1" xmlns="http://www.w3.org/2000/svg" xmlns:xlink="http://www.w3.org/1999/xlink" x="0px" y="0px"
	 viewBox="0 0 440 140" style="enable-background:new 0 0 440 140;" xml:space="preserve">
<style type="text/css">
	.st0{display:none;}
	.st1{display:inline;fill:#181818;}
	.st2{display:inline;fill:#FFFFFF;}
	.st3{font-family:'SpaceMono-Bold';}
	.st4{font-size:72px;}
	.st5{letter-spacing:3;}
	.st6{display:inline;fill:#00C8FF;}
	.st7{display:inline;fill:#777777;}
	.st8{font-family:'SpaceMono-Regular';}
	.st9{font-size:14px;}
	.st10{letter-spacing:14;}
	.st11{fill:#FFFFFF;}
	.st12{fill:#00C8FF;}
	.st13{display:inline;}
	.st14{fill:#777777;}
	.st15{fill:#005A7A;}
</style>
<g id="Réteg_1">
	<g class="st0">
		<rect y="0" class="st1" width="440" height="140"/>
		<text transform="matrix(1 0 0 1 20 95)" class="st2 st3 st4 st5">AIK</text>
		<text transform="matrix(1 0 0 1 218 95)" class="st6 st3 st4">O</text>
		<text transform="matrix(1 0 0 1 270 95)" class="st2 st3 st4 st5">U</text>
		<text transform="matrix(1 0 0 1 20 124)" class="st7 st8 st9 st10">TECHNOLOGIES</text>
	</g>
	<g id="Réteg_7" class="st0">
		<rect y="0" class="st1" width="440" height="140"/>
	</g>
	<g class="st0">
		
			<text transform="matrix(1 0 0 1 62.1931 241.8745)" class="st3" style="display:inline;fill:#AD3434; font-size:71.8155px; letter-spacing:4;">AIKOU</text>
	</g>
	<g id="Réteg_2_másolat">
		<g>
			<path class="st11" d="M102.6,95.5l12.2-51.1h18.1L145,95.5h-10l-2.5-11h-17.4l-2.5,11H102.6z M117.2,75.4h13.2l-5.9-26.1h-1.3
				L117.2,75.4z"/>
			<path class="st11" d="M156.9,95.5v-9.2h12.3V53.6h-12.3v-9.2H191v9.2h-12.3v32.7H191v9.2H156.9z"/>
			<path class="st11" d="M205.4,95.5V44.5h9.6v21h2.1l13.5-21h10.9v0.4l-15.7,24.5v1.3l16.6,24.5v0.4h-11.3l-13.9-21H215v21
				C215,95.6,205.4,95.6,205.4,95.5z"/>
			<path class="st12" d="M269.3,96.7c-5.9,0-10.5-1.8-13.8-5.4s-5-8.8-5-15.6V64.3c0-6.6,1.7-11.7,5-15.4c3.4-3.7,8-5.5,13.8-5.5
				s10.5,1.8,13.8,5.5c3.4,3.7,5,8.8,5,15.4v11.4c0,6.8-1.7,12-5,15.6S275.3,96.7,269.3,96.7z M269.3,87.8c3.5,0,5.9-1.1,7.2-3.2
				c1.3-2.1,2-4.9,2-8.3V63.6c0-2.1-0.3-4.1-1-5.9c-0.6-1.8-1.6-3.1-3-4.2c-1.3-1-3.1-1.5-5.3-1.5c-2.2,0-4,0.5-5.3,1.5
				c-1.4,1-2.4,2.4-3,4.2s-0.9,3.7-0.9,5.9v12.6c0,3.4,0.7,6.2,2,8.3C263.4,86.8,265.8,87.8,269.3,87.8z"/>
			<path class="st11" d="M319,96.7c-6,0-10.6-1.7-13.7-5s-4.7-7.9-4.7-13.7V44.5h9.6v33.4c0,3,0.7,5.3,2.2,7
				c1.4,1.7,3.6,2.6,6.6,2.6s5.2-0.9,6.6-2.6s2.1-4.1,2.1-7V44.5h9.6v33.4c0,5.8-1.5,10.4-4.6,13.7C329.8,94.9,325.1,96.7,319,96.7z
				"/>
		</g>
	</g>
	<g id="Réteg_3" class="st0">
		
			<text transform="matrix(1 0 0 1 62.3705 271.436)" class="st8" style="display:inline;fill:#CC5A5A; font-size:14.6158px; letter-spacing:10;">TECHNOLOGIES</text>
	</g>
	<g id="Réteg_3_másolat" class="st0">
		<g class="st13">
			<g>
				<path class="st14" d="M164.4,110.5v-8.7h-2.9v-1.1h6.9v1.1h-2.9v8.7H164.4z"/>
				<path class="st14" d="M182.9,110.5v-9.8h5.9v1.1H184v3.2h4.7v1.1H184v3.3h4.8v1.1C188.8,110.5,182.9,110.5,182.9,110.5z"/>
				<path class="st14" d="M206.7,110.7c-1.1,0-1.9-0.3-2.5-1s-0.9-1.7-0.9-3v-2.2c0-1.3,0.3-2.2,0.9-2.9c0.6-0.7,1.5-1.1,2.5-1.1
					c0.7,0,1.4,0.2,1.9,0.5s0.9,0.7,1.2,1.3c0.3,0.5,0.4,1.1,0.4,1.8v0.2H209v-0.2c0-0.4-0.1-0.8-0.2-1.2c-0.2-0.4-0.4-0.7-0.7-0.9
					c-0.3-0.2-0.8-0.4-1.3-0.4c-0.8,0-1.3,0.3-1.7,0.8s-0.6,1.3-0.6,2.2v2c0,1,0.2,1.7,0.6,2.2s0.9,0.8,1.7,0.8c0.5,0,1-0.1,1.3-0.3
					s0.6-0.5,0.7-0.9c0.2-0.4,0.2-0.8,0.2-1.2V107h1.2v0.2c0,0.7-0.1,1.3-0.4,1.8c-0.3,0.5-0.6,1-1.2,1.3S207.5,110.7,206.7,110.7z"
					/>
				<path class="st14" d="M224.3,110.5v-9.8h1.2v4.3h4.2v-4.3h1.2v9.8h-1.2v-4.4h-4.2v4.4H224.3z"/>
				<path class="st14" d="M245.1,110.5v-9.8h2.4l2.8,9.3h0.2v-9.3h1.2v9.8h-2.4l-2.8-9.3h-0.2v9.3H245.1z"/>
				<path class="st14" d="M269.2,110.7c-1.1,0-1.9-0.3-2.5-1s-0.9-1.7-0.9-3v-2.2c0-1.3,0.3-2.2,0.9-2.9c0.6-0.7,1.5-1.1,2.5-1.1
					c1.1,0,1.9,0.4,2.5,1.1s0.9,1.7,0.9,2.9v2.2c0,1.3-0.3,2.3-0.9,3C271.1,110.3,270.3,110.7,269.2,110.7z M269.2,109.6
					c0.8,0,1.3-0.3,1.7-0.8s0.6-1.3,0.6-2.2v-2c0-0.9-0.2-1.6-0.6-2.2c-0.4-0.6-0.9-0.8-1.7-0.8c-0.8,0-1.3,0.3-1.7,0.8
					s-0.6,1.3-0.6,2.2v2c0,1,0.2,1.7,0.6,2.2C267.9,109.3,268.5,109.6,269.2,109.6z"/>
				<path class="st14" d="M287,110.5v-9.8h1.2v8.7h5.1v1.1C293.3,110.5,287,110.5,287,110.5z"/>
				<path class="st14" d="M310.9,110.7c-1.1,0-1.9-0.3-2.5-1s-0.9-1.7-0.9-3v-2.2c0-1.3,0.3-2.2,0.9-2.9c0.6-0.7,1.5-1.1,2.5-1.1
					c1.1,0,1.9,0.4,2.5,1.1s0.9,1.7,0.9,2.9v2.2c0,1.3-0.3,2.3-0.9,3C312.8,110.3,312,110.7,310.9,110.7z M310.9,109.6
					c0.8,0,1.3-0.3,1.7-0.8s0.6-1.3,0.6-2.2v-2c0-0.9-0.2-1.6-0.6-2.2c-0.4-0.6-0.9-0.8-1.7-0.8c-0.8,0-1.3,0.3-1.7,0.8
					s-0.6,1.3-0.6,2.2v2c0,1,0.2,1.7,0.6,2.2C309.6,109.3,310.1,109.6,310.9,109.6z"/>
				<path class="st14" d="M331.7,110.7c-1,0-1.9-0.3-2.5-1s-0.9-1.7-0.9-3v-2.2c0-1.3,0.3-2.2,0.9-2.9c0.6-0.7,1.5-1.1,2.5-1.1
					c0.7,0,1.4,0.2,1.9,0.5s0.9,0.7,1.2,1.3c0.3,0.5,0.4,1.1,0.4,1.8v0.2H334v-0.2c0-0.4-0.1-0.8-0.2-1.2c-0.2-0.4-0.4-0.7-0.7-0.9
					c-0.3-0.2-0.8-0.4-1.3-0.4c-0.8,0-1.3,0.3-1.7,0.8s-0.6,1.3-0.6,2.2v2c0,1,0.2,1.7,0.6,2.2s1,0.8,1.7,0.8s1.2-0.2,1.6-0.7
					s0.6-1.1,0.6-1.9v-0.2h-3.2v-1.1h4.4v4.7h-1.1v-1.2h-0.2c-0.1,0.4-0.4,0.7-0.8,1C332.7,110.6,332.2,110.7,331.7,110.7z"/>
				<path class="st14" d="M349.5,110.5v-1.1h2.5v-7.6h-2.5v-1.1h6.2v1.1h-2.5v7.6h2.5v1.1H349.5z"/>
				<path class="st14" d="M370.5,110.5v-9.8h5.9v1.1h-4.7v3.2h4.7v1.1h-4.7v3.3h4.8v1.1C376.5,110.5,370.5,110.5,370.5,110.5z"/>
				<path class="st14" d="M394.5,110.7c-0.8,0-1.5-0.2-2.1-0.5s-1-0.7-1.3-1.3s-0.4-1.2-0.4-1.8v-0.4h1.2v0.3c0,0.8,0.2,1.5,0.7,1.9
					s1.1,0.7,2,0.7c0.7,0,1.3-0.2,1.6-0.5c0.4-0.3,0.6-0.8,0.6-1.3v-0.1c0-0.5-0.2-0.9-0.6-1.2s-1-0.5-1.8-0.6
					c-1-0.1-1.8-0.4-2.3-0.8s-0.9-1-0.9-1.9V103c0-0.5,0.1-1,0.4-1.4s0.7-0.7,1.1-0.9c0.5-0.2,1-0.3,1.7-0.3s1.4,0.1,1.9,0.4
					s0.9,0.6,1.2,1.1c0.3,0.4,0.4,0.9,0.4,1.5v0.6h-1.2v-0.5c0-0.4-0.1-0.8-0.3-1.1c-0.2-0.3-0.5-0.5-0.9-0.6s-0.7-0.2-1.1-0.2
					s-0.7,0.1-1,0.2s-0.6,0.3-0.8,0.5c-0.2,0.2-0.3,0.5-0.3,0.8v0.1c0,0.5,0.2,0.9,0.7,1.2s1.1,0.4,2,0.6c1,0.1,1.8,0.4,2.3,0.9
					s0.7,1,0.7,1.8v0.2c0,0.8-0.3,1.5-0.9,2.1S395.6,110.7,394.5,110.7z"/>
			</g>
		</g>
	</g>
	<g id="Réteg_4" class="st0">
	</g>
</g>
<g id="Réteg_2" class="st0">
	<g id="Réteg_8_2_" class="st13">
		<path class="st12" d="M63,22h54c11.6,0,21,9.4,21,21v54c0,11.6-9.4,21-21,21H63c-11.6,0-21-9.4-21-21V43C42,31.4,51.4,22,63,22z"
			/>
		<polygon class="st15" points="63,46 72,46 90,67 81,67 		"/>
		<polygon class="st15" points="63,94 72,94 90,73 81,73 		"/>
		<rect x="81" y="67" class="st15" width="9" height="6"/>
		<polygon points="90,46 99,46 117,67 108,67 		"/>
		<polygon points="90,94 99,94 117,73 108,73 		"/>
		<rect x="108" y="67" width="9" height="6"/>
	</g>
</g>
<g id="Réteg_3_1_">
</g>
</svg>
